<?xml version="1.0" encoding="UTF-8"?>
<!DOCTYPE svg PUBLIC "-//W3C//DTD SVG 1.1//EN" "http://www.w3.org/Graphics/SVG/1.1/DTD/svg11.dtd">
<!-- Creator: CorelDRAW 2021 (64 Bit) -->
<svg xmlns="http://www.w3.org/2000/svg" xml:space="preserve" width="88.0739mm" height="103.748mm" version="1.1" style="shape-rendering:geometricPrecision; text-rendering:geometricPrecision; image-rendering:optimizeQuality; fill-rule:evenodd; clip-rule:evenodd"
viewBox="0 0 8793.16 10358"
 xmlns:xlink="http://www.w3.org/1999/xlink"
 xmlns:xodm="http://www.corel.com/coreldraw/odm/2003">
 <defs>
  <style type="text/css">
   <![CDATA[
    .fil0 {fill:#FE4F00}
   ]]>
  </style>
 </defs>
 <g id="Camada_x0020_1">
  <metadata id="CorelCorpID_0Corel-Layer"/>
  <g id="_1910650084368">
   <path class="fil0" d="M8209.95 5561.02c-252.02,2079.7 -1863.11,3683.66 -3813.27,3683.66 -136.17,0 -270.55,-7.93 -403.08,-23.14l-1892.72 1105.99c-153.23,89.49 -432.12,-29.85 -408.66,-206.15l246.85 -1857.44c-724.76,-665.86 -1224.76,-1620.39 -1355.83,-2703.97 394.01,123.7 767.23,224.11 1137.62,304.13 248.38,1248.46 1351.86,2189.64 2675.65,2189.64 1324.35,0 2428.15,-941.91 2676.05,-2191.02 449.75,-93.53 735.03,-171.6 1137.38,-301.7z"/>
   <path class="fil0" d="M3262.59 788.42c-1469.69,226.73 -2578.65,1793.84 -2698.89,3246.56 -7.67,140.11 -17.64,116.05 35.93,119.77l7588.4 0c54.81,1.73 50.53,10.95 43.36,-110.61 -80.12,-1358.68 -1194.84,-3139.1 -2705.08,-3255.38l0 148.43 1.73 0.08 -1.24 1083.4c6.77,204.32 -0.41,367.1 -0.65,563.26 -0.09,60.66 -49.79,109.94 -110.45,109.61l-3.45 0c-3.54,0.41 -7.17,0.67 -10.88,0.74 -10.79,0.25 -20.77,-0.07 -30.08,-0.98l-9.64 -0.09c-60.66,-0.33 -110.27,-50.27 -110.19,-110.94 0.08,-47.96 -0.17,-95.68 0.08,-143.65l0.83 -2026.68c0.66,-124.13 -5.86,-218.25 -51.11,-292.27 -38.07,-62.14 -122.3,-119.67 -223.68,-119.67l-1167.47 0c-218.99,0 -276.34,169.54 -274.95,394.62l0.25 548.91 3.13 0.08 -1.91 1646.66c-0.08,60.65 -49.77,109.94 -110.44,109.61l-54.06 -0.33c-60.66,-0.33 -110.28,-50.28 -110.19,-110.93l0.49 -372.05c-0.66,-39.81 -0.08,-73.43 0.09,-96.01l0.08 -47.22 0 -1284.91z"/>
   <path class="fil0" d="M308.36 4429.94l8208.44 0c0,0 253.44,297.94 273.55,425.52 12.94,82.1 -16.23,167.65 -142.66,239.51 -38.33,13.93 -75.17,37.01 -115.72,51.35 -449.34,159.23 -1034.94,335.86 -1562.41,432.54 -458.25,83.89 -933.56,161.95 -1426.02,198.71 -143.32,10.63 -290.27,20.03 -440.28,27.85l-328.85 10.55 -788.83 -0.91c-65.52,1.9 -145.3,-4.2 -238.6,-7.75 -275.04,-10.55 -661.33,-33.55 -1078.38,-86.37 -540.01,-68.33 -1128.47,-187.18 -1616.48,-327.54 -366.1,-105.33 -677.56,-199.78 -878.26,-276.67 -23.98,-9.24 -47.55,-21.84 -67.41,-36.76 -63.06,-47.39 -108.96,-111.27 -106.33,-220.8 3.06,-126.68 298.36,-429 308.25,-429.24z"/>
  </g>
 </g>
</svg>
