<?xml version="1.0" encoding="UTF-8"?>
<!DOCTYPE svg PUBLIC "-//W3C//DTD SVG 1.1//EN" "http://www.w3.org/Graphics/SVG/1.1/DTD/svg11.dtd">
<!-- Creator: CorelDRAW 2021 (64 Bit) -->
<svg xmlns="http://www.w3.org/2000/svg" xml:space="preserve" width="91.956mm" height="84.0858mm" version="1.1" style="shape-rendering:geometricPrecision; text-rendering:geometricPrecision; image-rendering:optimizeQuality; fill-rule:evenodd; clip-rule:evenodd"
viewBox="0 0 9181.36 8395.56"
 xmlns:xlink="http://www.w3.org/1999/xlink"
 xmlns:xodm="http://www.corel.com/coreldraw/odm/2003">
 <defs>
  <style type="text/css">
   <![CDATA[
    .fil0 {fill:#FE4F00}
   ]]>
  </style>
 </defs>
 <g id="Camada_x0020_1">
  <metadata id="CorelCorpID_0Corel-Layer"/>
  <g id="_1918989307696">
   <path class="fil0" d="M5233.09 637.31c1260.52,1260.51 2521.1,2521.09 3781.62,3781.61 173.6,164.76 249.8,376.41 38.09,556.2l-378.1 378.03 -4078.75 -4078.68 -4078.69 4078.68c-120.69,-120.69 -234.7,-248.57 -362.15,-362.15 -194.98,-173.68 -218.9,-362.46 1.77,-551.92l4439.08 -4439.08 637.15 637.16 0 0.15z"/>
   <polygon class="fil0" points="4587.89,1844.96 7917.37,5249.72 7927.6,5249.72 7927.6,8395.56 5413.33,8395.56 5413.33,6306.51 3791.97,6306.51 3791.97,8395.56 1258.35,8395.56 1258.35,5249.72 "/>
  </g>
 </g>
</svg>
