<?xml version="1.0" encoding="UTF-8"?>
<!DOCTYPE svg PUBLIC "-//W3C//DTD SVG 1.1//EN" "http://www.w3.org/Graphics/SVG/1.1/DTD/svg11.dtd">
<!-- Creator: CorelDRAW 2021 (64 Bit) -->
<svg xmlns="http://www.w3.org/2000/svg" xml:space="preserve" width="74.0169mm" height="102.239mm" version="1.1" style="shape-rendering:geometricPrecision; text-rendering:geometricPrecision; image-rendering:optimizeQuality; fill-rule:evenodd; clip-rule:evenodd"
viewBox="0 0 7387.47 10204.25"
 xmlns:xlink="http://www.w3.org/1999/xlink"
 xmlns:xodm="http://www.corel.com/coreldraw/odm/2003">
 <defs>
  <style type="text/css">
   <![CDATA[
    .fil0 {fill:#FE4F00}
   ]]>
  </style>
 </defs>
 <g id="Camada_x0020_1">
  <metadata id="CorelCorpID_0Corel-Layer"/>
  <path class="fil0" d="M5268.29 345.54c841.42,424.45 1341.84,917.48 1773.76,1773.77 275.42,546 345.42,1079.33 345.42,1727.3 0,791.6 -351.8,1470.75 -718.48,2111.56l-344.1 592.62c-158.56,263.9 -296.71,522.81 -453.25,782.4l-911.8 1579.44c-83.1,138.23 -150.96,262 -234.51,403.25 -80.36,135.86 -269.46,485.07 -353.07,583.64 -149.16,175.84 -377.46,304.72 -612.04,304.72 -445.81,0 -650.5,-136.08 -858.03,-497.21 -76.48,-133.07 -152.33,-267.1 -234.29,-403.45 -391.75,-651.66 -765.55,-1323.87 -1145.98,-1983.02 -153.47,-274.63 -308.2,-520.29 -459.1,-796.51 -656.37,-1201.52 -1223.65,-1948.14 -1021.16,-3397.25 136.45,-976.41 752.96,-1906.61 1546.24,-2468.95 1022.95,-725.16 2549.59,-882.72 3680.38,-312.32zm-1567.86 1628.91c794.57,0 1438.7,644.13 1438.7,1438.7 0,794.58 -644.13,1438.7 -1438.7,1438.7 -794.58,0 -1438.7,-644.12 -1438.7,-1438.7 0,-794.57 644.12,-1438.7 1438.7,-1438.7z"/>
 </g>
</svg>
